<svg xmlns="http://www.w3.org/2000/svg" id="Arts" viewBox="0 0 1359.78 421.45"><defs><style>      .cls-1 {        fill: #f5f5f5;      }    </style></defs><g><path class="cls-1" d="m528.07,188.94c-.73-17.75-13.61-33.31-37.92-33.31-27.71,0-40.84,18.23-40.84,46.67v26.74c0,28.44,11.67,48.38,41.09,48.38,24.79,0,38.41-15.32,38.41-34.04v-2.43h-38.17v-27.71h71.47v22.12c0,40.84-28.44,69.28-72.2,69.28-50.56,0-74.39-34.04-74.39-76.33v-24.79c0-45.7,27.23-75.85,73.66-75.85,44,0,70.26,26.01,71.23,61.26h-32.33Z"></path><path class="cls-1" d="m580.46,247.77v-17.26c0-34.28,20.42-58.59,58.34-58.59s56.4,25.04,56.4,55.43v22.12h-82.65v3.16c0,14.83,7.53,27.71,26.74,27.71,14.1,0,22.85-7.29,26.01-16.04h28.93c-4.38,23.09-26.98,39.87-54.94,39.87-35.74,0-58.83-20.91-58.83-56.4Zm32.09-21.64h52.26v-3.16c0-15.8-8.26-27.71-26.01-27.71-18.96,0-26.25,12.64-26.25,29.65v1.22Z"></path><path class="cls-1" d="m713.55,174.84h31.6v15.07c6.32-11.67,19.2-17.99,37.19-17.99,27.47,0,44.73,17.99,44.73,48.38v80.95h-33.06v-75.61c0-14.59-7.05-25.04-23.09-25.04-14.83,0-24.31,8.75-24.31,25.77v74.87h-33.06v-126.41Z"></path><path class="cls-1" d="m997.04,301.25h-33.79l-11.43-35.74h-66.12l-11.43,35.74h-33.79l61.02-170.17h34.52l61.02,170.17Zm-102.83-62.72h48.86l-24.31-76.82-24.55,76.82Z"></path><path class="cls-1" d="m1010.46,131.09h34.04v170.17h-34.04v-170.17Z"></path><path class="cls-1" d="m1178.36,301.25h-31.6v-15.07c-5.83,10.7-20.42,17.99-36.71,17.99-28.44,0-44.24-19.69-44.24-48.38v-80.95h33.06v76.33c0,16.04,7.54,25.28,22.36,25.28s24.07-9.72,24.07-25.53v-76.09h33.06v126.41Z"></path><path class="cls-1" d="m1194.73,263.81v-2.19h29.17v1.7c0,10.94,9.97,17.5,25.52,17.5,13.86,0,24.07-5.59,24.07-15.32,0-6.08-3.16-9.72-10.45-11.42l-37.43-8.51c-18.96-4.38-28.93-14.1-28.93-33.3,0-26.01,21.15-40.35,51.05-40.35s50.08,15.31,50.08,40.35v1.95h-28.93v-2.19c0-9.72-6.08-16.53-20.67-16.53-13.37,0-20.66,4.86-20.66,13.86,0,6.32,3.16,9.24,9.72,10.7l38.41,9.48c18.72,4.62,28.2,14.59,28.2,32.33,0,24.55-23.34,42.3-54.7,42.3s-54.45-13.37-54.45-40.36Z"></path></g><path class="cls-1" d="m307.8,89.8c-20.72-1.37-44.12,11.9-57.31,20.87l-2.15,1.47c-4.07,2.83-7.53,5.44-10.21,7.51-36.37-25.02-77.5-51.25-109.71-51.25-60.24,0-72.51,55.09-72.51,69.9v144.85c0,14.73,12.28,69.9,72.51,69.9,32.22,0,73.34-26.25,109.71-51.25,2.68,1.99,12.36,8.9,12.36,8.9,12.58,8.59,34.29,21.02,54.54,21.02.91,0,1.84,0,2.76-.08h.07c25.78-1.52,32.62-21.94,32.62-33.76V123.49c0-11.82-6.83-32.15-32.68-33.69Zm-.63,230.73c-.73.03-1.47.07-2.23.07-14,0-29.82-7.56-42.1-15.06,15.65-15.21,31.01-23.35,46.8-24.82,11.17,1.04,17.26,6.01,19.69,16.02.03.33.03.69.03,1.14,0,3.57-1.08,21.41-22.19,22.65Zm22.19-50.55c-5.3-3.16-11.68-5.06-19.13-5.68-1.72-.15-3.54-.23-5.39-.23-5.66,0-11.88.68-18.45,1.99-10.39,2-25.6,6.55-51.08,24.16l-1.72,1.16c-25.55,17.67-73.13,50.56-105.16,50.56-50.97,0-61.38-46.37-61.38-58.78v-144.85c0-12.43,10.41-58.78,61.38-58.78,29.47,0,69.7,26.03,105.11,50.44l1.64,1.19.05.03.07.03c25.24,17.38,40.54,22.04,51.12,24.18,6.85,1.31,13.14,1.97,18.7,1.97,1.79,0,3.54-.08,5.21-.22,7.4-.61,13.77-2.53,19.05-5.73v118.55Zm0-145.26c-2.47,9.95-8.57,14.91-19.73,16-15.79-1.54-31.16-9.68-46.8-24.84,10.97-6.77,27.49-15.09,42.23-15.09.71,0,1.42.02,2.1.05,21.12,1.29,22.19,19.1,22.19,22.65v1.22Z"></path></svg>